<svg aria-hidden="true" style="position: absolute; width: 0; height: 0; overflow: hidden;" version="1.1" xmlns="http://www.w3.org/2000/svg" xmlns:xlink="http://www.w3.org/1999/xlink">
<defs>
<symbol id="icon-map" fill="none" viewBox="0 0 20 20">
<path d="M6.97333 3.99167L4.69333 3.23084C4.44278 3.14739 4.17598 3.12467 3.91492 3.16456C3.65387 3.20445 3.40603 3.30581 3.19182 3.46027C2.97762 3.61474 2.80319 3.81789 2.68291 4.053C2.56263 4.2881 2.49994 4.54842 2.5 4.81251V14.6317C2.49992 14.9816 2.60998 15.3227 2.8146 15.6066C3.01921 15.8905 3.30799 16.1028 3.64 16.2133L6.97333 17.3242C7.31521 17.438 7.68479 17.438 8.02667 17.3242L11.9733 16.0092C12.3152 15.8953 12.6848 15.8953 13.0267 16.0092L15.3067 16.7692C15.5573 16.8526 15.8242 16.8754 16.0853 16.8354C16.3464 16.7955 16.5943 16.6941 16.8085 16.5395C17.0227 16.3849 17.1971 16.1817 17.3174 15.9465C17.4376 15.7112 17.5002 15.4508 17.5 15.1867V5.36834C17.5001 5.0185 17.3902 4.67749 17.1857 4.39361C16.9813 4.10974 16.6927 3.8974 16.3608 3.78668L13.0275 2.67584C12.6854 2.56179 12.3155 2.56179 11.9733 2.67584L8.02583 3.99084C7.68395 4.10471 7.31438 4.10471 6.9725 3.99084L6.97333 3.99167Z" stroke="#344055" stroke-width="2" stroke-linecap="round" stroke-linejoin="round"/>
<path d="M7.5 4.16666V17.5" stroke="#344055" stroke-width="2" stroke-linejoin="round"/>
<path d="M12.5 2.5V15.8333" stroke="#344055" stroke-width="2" stroke-linejoin="round"/>
</symbol>

<symbol id="icon-marker"  viewBox="0 0 20 20">
<path d="M9.99998 3.73334C9.37038 3.73334 8.75492 3.92004 8.23142 4.26983C7.70792 4.61962 7.29991 5.11678 7.05897 5.69846C6.81803 6.28014 6.75499 6.9202 6.87782 7.53771C7.00065 8.15522 7.30383 8.72243 7.74903 9.16763C8.19423 9.61283 8.76144 9.91601 9.37895 10.0388C9.99645 10.1617 10.6365 10.0986 11.2182 9.85769C11.7999 9.61675 12.297 9.20873 12.6468 8.68524C12.9966 8.16174 13.1833 7.54628 13.1833 6.91667C13.1833 6.0724 12.8479 5.26271 12.2509 4.66571C11.6539 4.06872 10.8443 3.73334 9.99998 3.73334V3.73334ZM9.99998 8.98889C9.59014 8.98889 9.18949 8.86736 8.84872 8.63966C8.50794 8.41196 8.24234 8.08833 8.0855 7.70968C7.92866 7.33103 7.88762 6.91437 7.96758 6.5124C8.04754 6.11043 8.2449 5.74119 8.5347 5.45139C8.82451 5.16158 9.19374 4.96422 9.59571 4.88427C9.99769 4.80431 10.4143 4.84535 10.793 5.00219C11.1716 5.15903 11.4953 5.42463 11.723 5.76541C11.9507 6.10618 12.0722 6.50682 12.0722 6.91667C12.0707 7.4653 11.8518 7.99095 11.4633 8.37836C11.0748 8.76578 10.5486 8.98334 9.99998 8.98334V8.98889Z" />
<path d="M10 1.11111C8.26957 1.11256 6.61 1.79872 5.38379 3.01972C4.15758 4.24073 3.46437 5.89736 3.45557 7.62778C3.45557 10.2222 4.91112 12.3944 5.97779 13.9778L6.17223 14.2667C7.2335 15.8048 8.372 17.2882 9.58334 18.7111L10.0056 19.2056L10.4278 18.7111C11.639 17.2881 12.7775 15.8047 13.8389 14.2667L14.0333 13.9722C15.0945 12.3889 16.55 10.2222 16.55 7.62778C16.5412 5.8964 15.8472 4.23893 14.6198 3.01777C13.3924 1.7966 11.7314 1.11109 10 1.11111V1.11111ZM13.1056 13.3333L12.9056 13.6278C11.95 15.0611 10.6833 16.6667 10 17.4611C9.34446 16.6667 8.05001 15.0611 7.09446 13.6278L6.90001 13.3333C5.91668 11.8667 4.56668 9.86111 4.56668 7.60556C4.56668 6.89204 4.70722 6.18552 4.98027 5.52631C5.25332 4.86711 5.65353 4.26814 6.15806 3.76361C6.6626 3.25908 7.26156 2.85886 7.92076 2.58581C8.57997 2.31276 9.2865 2.17223 10 2.17223C10.7135 2.17223 11.4201 2.31276 12.0793 2.58581C12.7385 2.85886 13.3374 3.25908 13.842 3.76361C14.3465 4.26814 14.7467 4.86711 15.0198 5.52631C15.2928 6.18552 15.4333 6.89204 15.4333 7.60556C15.4333 9.88334 14.0889 11.8889 13.1056 13.3333V13.3333Z" />
</symbol>

<symbol id="icon-segments" viewBox="0 0 20 20">
<path d="M1.25 15V13.75H12.5V15H1.25ZM1.25 8.75H18.75V10H1.25V8.75ZM15 3.75V5H1.25V3.75H15Z" fill=""/>
</symbol>

<symbol id="icon-search" fill="" viewBox="0 0 20 20">
<path d="M19.9399 19.0624L13.4474 12.5699C14.4549 11.2675 14.9999 9.67496 14.9999 7.99997C14.9999 5.99498 14.2174 4.11498 12.8024 2.69749C11.3874 1.28 9.50246 0.5 7.49997 0.5C5.49748 0.5 3.61248 1.2825 2.19749 2.69749C0.779997 4.11248 0 5.99498 0 7.99997C0 10.0025 0.782497 11.8874 2.19749 13.3024C3.61248 14.7199 5.49498 15.4999 7.49997 15.4999C9.17496 15.4999 10.765 14.9549 12.0674 13.9499L18.5599 20.4399C18.579 20.459 18.6016 20.4741 18.6264 20.4844C18.6513 20.4947 18.678 20.5 18.7049 20.5C18.7319 20.5 18.7585 20.4947 18.7834 20.4844C18.8083 20.4741 18.8309 20.459 18.8499 20.4399L19.9399 19.3524C19.959 19.3334 19.9741 19.3108 19.9844 19.2859C19.9947 19.261 20 19.2343 20 19.2074C20 19.1805 19.9947 19.1538 19.9844 19.1289C19.9741 19.1041 19.959 19.0815 19.9399 19.0624ZM11.46 11.96C10.4 13.0174 8.99496 13.5999 7.49997 13.5999C6.00497 13.5999 4.59998 13.0174 3.53998 11.96C2.48249 10.9 1.89999 9.49496 1.89999 7.99997C1.89999 6.50497 2.48249 5.09748 3.53998 4.03998C4.59998 2.98249 6.00497 2.39999 7.49997 2.39999C8.99496 2.39999 10.4025 2.97999 11.46 4.03998C12.5174 5.09998 13.0999 6.50497 13.0999 7.99997C13.0999 9.49496 12.5174 10.9025 11.46 11.96Z" fill=""/>
</symbol>

<symbol id="icon-calendar" fill="none" viewBox="0 0 20 20">
<path d="M15 3.33331H4.99996C3.15901 3.33331 1.66663 4.8257 1.66663 6.66665V15C1.66663 16.8409 3.15901 18.3333 4.99996 18.3333H15C16.8409 18.3333 18.3333 16.8409 18.3333 15V6.66665C18.3333 4.8257 16.8409 3.33331 15 3.33331Z" stroke="#344055" stroke-width="2" stroke-linecap="round" stroke-linejoin="round"/>
<path d="M6.66663 1.66666V4.99999" stroke="#344055" stroke-width="2" stroke-linecap="round" stroke-linejoin="round"/>
<path d="M13.3333 1.66666V4.99999" stroke="#344055" stroke-width="2" stroke-linecap="round" stroke-linejoin="round"/>
<path d="M1.66663 8.33331H18.3333" stroke="#344055" stroke-width="2" stroke-linecap="round" stroke-linejoin="round"/>
</symbol>

<symbol id="icon-calendar-light" fill="none" viewBox="0 0 20 20">
<path d="M15 3.33331H4.99996C3.15901 3.33331 1.66663 4.8257 1.66663 6.66665V15C1.66663 16.8409 3.15901 18.3333 4.99996 18.3333H15C16.8409 18.3333 18.3333 16.8409 18.3333 15V6.66665C18.3333 4.8257 16.8409 3.33331 15 3.33331Z" stroke="#B8C0D8" stroke-width="2" stroke-linecap="round" stroke-linejoin="round"/>
<path d="M6.66663 1.66666V4.99999" stroke="#B8C0D8" stroke-width="2" stroke-linecap="round" stroke-linejoin="round"/>
<path d="M13.3333 1.66666V4.99999" stroke="#B8C0D8" stroke-width="2" stroke-linecap="round" stroke-linejoin="round"/>
<path d="M1.66663 8.33331H18.3333" stroke="#B8C0D8" stroke-width="2" stroke-linecap="round" stroke-linejoin="round"/>
</symbol>

<symbol id="icon-up" fill="none" viewBox="0 0 20 20">
<path d="M16.6666 12.5L9.99996 5.83333L3.3333 12.5" stroke="" stroke-width="2" stroke-linecap="round" stroke-linejoin="round"/>
</symbol>
<symbol id="icon-loading" viewBox="0 0 20 20">
<path d="M10 20C8.65039 20 7.33984 19.7363 6.10742 19.2148C4.91602 18.7109 3.84766 17.9883 2.92969 17.0703C2.01172 16.1523 1.28906 15.084 0.785156 13.8926C0.263672 12.6602 0 11.3496 0 10C0 9.61133 0.314453 9.29688 0.703125 9.29688C1.0918 9.29688 1.40625 9.61133 1.40625 10C1.40625 11.1602 1.63281 12.2852 2.08203 13.3457C2.51562 14.3691 3.13477 15.2891 3.92383 16.0781C4.71289 16.8672 5.63281 17.4883 6.65625 17.9199C7.71484 18.3672 8.83984 18.5938 10 18.5938C11.1602 18.5938 12.2852 18.3672 13.3457 17.918C14.3691 17.4844 15.2891 16.8652 16.0781 16.0762C16.8672 15.2871 17.4883 14.3672 17.9199 13.3438C18.3672 12.2852 18.5938 11.1602 18.5938 10C18.5938 8.83984 18.3672 7.71484 17.918 6.6543C17.4858 5.63332 16.8604 4.70549 16.0762 3.92188C15.2934 3.13656 14.3654 2.51101 13.3438 2.08008C12.2852 1.63281 11.1602 1.40625 10 1.40625C9.61133 1.40625 9.29688 1.0918 9.29688 0.703125C9.29688 0.314453 9.61133 0 10 0C11.3496 0 12.6602 0.263672 13.8926 0.785156C15.084 1.28906 16.1523 2.01172 17.0703 2.92969C17.9883 3.84766 18.709 4.91797 19.2129 6.10742C19.7344 7.33984 19.998 8.65039 19.998 10C19.998 11.3496 19.7344 12.6602 19.2129 13.8926C18.7109 15.084 17.9883 16.1523 17.0703 17.0703C16.1523 17.9883 15.082 18.709 13.8926 19.2129C12.6602 19.7363 11.3496 20 10 20V20Z" fill=""/>
</symbol>
<symbol id="icon-rarrow" fill="none" viewBox="0 0 20 20">
<path d="M10.8334 4.16669L16.6667 10L10.8334 15.8334M3.33337 10H16.6667H3.33337Z" stroke="" stroke-width="2" stroke-linecap="round" stroke-linejoin="round"/>
</symbol>

<symbol id="icon-instagram" fill="" viewBox="0 0 20 20">
<path fill-rule="evenodd" clip-rule="evenodd" d="M6.221 0.888313C7.1985 0.843313 7.51016 0.833313 10.0002 0.833313C12.4902 0.833313 12.8018 0.844146 13.7785 0.888313C14.7552 0.93248 15.4218 1.08831 16.0052 1.31415C16.616 1.54498 17.1702 1.90581 17.6285 2.37248C18.0952 2.82998 18.4552 3.38331 18.6852 3.99498C18.9118 4.57831 19.0668 5.24498 19.1118 6.21998C19.1568 7.19915 19.1668 7.51081 19.1668 9.99998C19.1668 12.49 19.156 12.8016 19.1118 13.7791C19.0677 14.7541 18.9118 15.4208 18.6852 16.0041C18.4552 16.6159 18.0946 17.1701 17.6285 17.6283C17.1702 18.095 16.616 18.455 16.0052 18.685C15.4218 18.9116 14.7552 19.0666 13.7802 19.1116C12.8018 19.1566 12.4902 19.1666 10.0002 19.1666C7.51016 19.1666 7.1985 19.1558 6.221 19.1116C5.246 19.0675 4.57933 18.9116 3.996 18.685C3.38426 18.455 2.83001 18.0944 2.37183 17.6283C1.90548 17.1705 1.54459 16.6166 1.31433 16.005C1.0885 15.4216 0.933496 14.755 0.888496 13.78C0.843496 12.8008 0.833496 12.4891 0.833496 9.99998C0.833496 7.50998 0.844329 7.19831 0.888496 6.22165C0.932663 5.24498 1.0885 4.57831 1.31433 3.99498C1.54493 3.38338 1.9061 2.82941 2.37266 2.37165C2.8302 1.9054 3.38389 1.54452 3.99516 1.31415C4.5785 1.08831 5.24516 0.933313 6.22016 0.888313H6.221ZM13.7043 2.53831C12.7377 2.49415 12.4477 2.48498 10.0002 2.48498C7.55266 2.48498 7.26266 2.49415 6.296 2.53831C5.40183 2.57915 4.91683 2.72831 4.5935 2.85415C4.166 3.02081 3.86016 3.21831 3.53933 3.53915C3.2352 3.83502 3.00115 4.19522 2.85433 4.59331C2.7285 4.91665 2.57933 5.40165 2.5385 6.29581C2.49433 7.26248 2.48516 7.55248 2.48516 9.99998C2.48516 12.4475 2.49433 12.7375 2.5385 13.7041C2.57933 14.5983 2.7285 15.0833 2.85433 15.4066C3.001 15.8041 3.23516 16.165 3.53933 16.4608C3.83516 16.765 4.196 16.9991 4.5935 17.1458C4.91683 17.2716 5.40183 17.4208 6.296 17.4616C7.26266 17.5058 7.55183 17.515 10.0002 17.515C12.4485 17.515 12.7377 17.5058 13.7043 17.4616C14.5985 17.4208 15.0835 17.2716 15.4068 17.1458C15.8343 16.9791 16.1402 16.7816 16.461 16.4608C16.7652 16.165 16.9993 15.8041 17.146 15.4066C17.2718 15.0833 17.421 14.5983 17.4618 13.7041C17.506 12.7375 17.5152 12.4475 17.5152 9.99998C17.5152 7.55248 17.506 7.26248 17.4618 6.29581C17.421 5.40165 17.2718 4.91665 17.146 4.59331C16.9793 4.16581 16.7818 3.85998 16.461 3.53915C16.1651 3.23504 15.8049 3.00099 15.4068 2.85415C15.0835 2.72831 14.5985 2.57915 13.7043 2.53831V2.53831ZM8.82933 12.8258C9.48321 13.098 10.2113 13.1347 10.8893 12.9297C11.5672 12.7248 12.153 12.2907 12.5465 11.7018C12.94 11.113 13.1169 10.4057 13.0469 9.7009C12.9769 8.9961 12.6643 8.33746 12.1627 7.83748C11.8429 7.51788 11.4562 7.27316 11.0304 7.12094C10.6047 6.96871 10.1505 6.91278 9.70058 6.95716C9.25063 7.00154 8.81612 7.14513 8.42833 7.37759C8.04054 7.61005 7.70912 7.9256 7.45792 8.30152C7.20671 8.67745 7.04199 9.10439 6.97559 9.55161C6.9092 9.99884 6.94279 10.4552 7.07395 10.8879C7.2051 11.3206 7.43056 11.7188 7.7341 12.0539C8.03763 12.389 8.41168 12.6526 8.82933 12.8258ZM6.6685 6.66831C7.10602 6.23079 7.62543 5.88373 8.19708 5.64695C8.76873 5.41016 9.38142 5.28829 10.0002 5.28829C10.6189 5.28829 11.2316 5.41016 11.8032 5.64695C12.3749 5.88373 12.8943 6.23079 13.3318 6.66831C13.7694 7.10583 14.1164 7.62525 14.3532 8.19689C14.59 8.76854 14.7119 9.38123 14.7119 9.99998C14.7119 10.6187 14.59 11.2314 14.3532 11.8031C14.1164 12.3747 13.7694 12.8941 13.3318 13.3316C12.4482 14.2153 11.2498 14.7117 10.0002 14.7117C8.75055 14.7117 7.55211 14.2153 6.6685 13.3316C5.78488 12.448 5.28848 11.2496 5.28848 9.99998C5.28848 8.75036 5.78488 7.55193 6.6685 6.66831V6.66831ZM15.7568 5.98998C15.8653 5.8877 15.952 5.76471 16.0121 5.62829C16.0721 5.49187 16.1042 5.34479 16.1063 5.19575C16.1085 5.04672 16.0808 4.89877 16.0247 4.76065C15.9687 4.62254 15.8855 4.49707 15.7801 4.39168C15.6747 4.28629 15.5493 4.20311 15.4112 4.14708C15.273 4.09104 15.1251 4.06329 14.9761 4.06547C14.827 4.06764 14.6799 4.09969 14.5435 4.15973C14.4071 4.21976 14.2841 4.30656 14.1818 4.41498C13.9829 4.62584 13.874 4.90591 13.8782 5.19575C13.8825 5.4856 13.9995 5.76238 14.2045 5.96735C14.4094 6.17232 14.6862 6.28934 14.9761 6.29356C15.2659 6.29779 15.546 6.18889 15.7568 5.98998V5.98998Z" fill=""/>
</symbol>

<symbol id="icon-facebook" fill="" viewBox="0 0 20 20">
<path fill-rule="evenodd" clip-rule="evenodd" d="M0 10.0558C0 15.0275 3.61083 19.1617 8.33333 20V12.7775H5.83333V10H8.33333V7.7775C8.33333 5.2775 9.94417 3.88917 12.2225 3.88917C12.9442 3.88917 13.7225 4 14.4442 4.11083V6.66667H13.1667C11.9442 6.66667 11.6667 7.2775 11.6667 8.05583V10H14.3333L13.8892 12.7775H11.6667V20C16.3892 19.1617 20 15.0283 20 10.0558C20 4.525 15.5 0 10 0C4.5 0 0 4.525 0 10.0558Z" fill=""/>
</symbol>

<symbol id="icon-youtube" fill="" viewBox="0 0 20 20">
<path d="M18.75 9.94531C18.75 9.90234 18.75 9.85352 18.748 9.79688C18.7461 9.63867 18.7422 9.46094 18.7383 9.27148C18.7227 8.72656 18.6953 8.18359 18.6523 7.67187C18.5938 6.9668 18.5078 6.37891 18.3906 5.9375C18.267 5.47685 18.0246 5.05674 17.6876 4.71913C17.3507 4.38153 16.9311 4.13827 16.4707 4.01367C15.918 3.86523 14.8359 3.77344 13.3125 3.7168C12.5879 3.68945 11.8125 3.67187 11.0371 3.66211C10.7656 3.6582 10.5137 3.65625 10.2871 3.6543H9.71289C9.48633 3.65625 9.23437 3.6582 8.96289 3.66211C8.1875 3.67187 7.41211 3.68945 6.6875 3.7168C5.16406 3.77539 4.08008 3.86719 3.5293 4.01367C3.06875 4.13797 2.64896 4.38112 2.312 4.71877C1.97504 5.05642 1.73273 5.4767 1.60938 5.9375C1.49023 6.37891 1.40625 6.9668 1.34766 7.67187C1.30469 8.18359 1.27734 8.72656 1.26172 9.27148C1.25586 9.46094 1.25391 9.63867 1.25195 9.79688C1.25195 9.85352 1.25 9.90234 1.25 9.94531V10.0547C1.25 10.0977 1.25 10.1465 1.25195 10.2031C1.25391 10.3613 1.25781 10.5391 1.26172 10.7285C1.27734 11.2734 1.30469 11.8164 1.34766 12.3281C1.40625 13.0332 1.49219 13.6211 1.60938 14.0625C1.85938 14.998 2.59375 15.7363 3.5293 15.9863C4.08008 16.1348 5.16406 16.2266 6.6875 16.2832C7.41211 16.3105 8.1875 16.3281 8.96289 16.3379C9.23437 16.3418 9.48633 16.3438 9.71289 16.3457H10.2871C10.5137 16.3438 10.7656 16.3418 11.0371 16.3379C11.8125 16.3281 12.5879 16.3105 13.3125 16.2832C14.8359 16.2246 15.9199 16.1328 16.4707 15.9863C17.4062 15.7363 18.1406 15 18.3906 14.0625C18.5098 13.6211 18.5938 13.0332 18.6523 12.3281C18.6953 11.8164 18.7227 11.2734 18.7383 10.7285C18.7441 10.5391 18.7461 10.3613 18.748 10.2031C18.748 10.1465 18.75 10.0977 18.75 10.0547V9.94531V9.94531ZM17.3438 10.0469C17.3438 10.0879 17.3438 10.1328 17.3418 10.1855C17.3398 10.3379 17.3359 10.5059 17.332 10.6875C17.3184 11.207 17.291 11.7266 17.25 12.209C17.1973 12.8379 17.123 13.3535 17.0312 13.6992C16.9102 14.1504 16.5547 14.5078 16.1055 14.627C15.6953 14.7363 14.6621 14.8242 13.2578 14.877C12.5469 14.9043 11.7812 14.9219 11.0176 14.9316C10.75 14.9355 10.502 14.9375 10.2793 14.9375H9.7207L8.98242 14.9316C8.21875 14.9219 7.45508 14.9043 6.74219 14.877C5.33789 14.8223 4.30273 14.7363 3.89453 14.627C3.44531 14.5059 3.08984 14.1504 2.96875 13.6992C2.87695 13.3535 2.80273 12.8379 2.75 12.209C2.70898 11.7266 2.68359 11.207 2.66797 10.6875C2.66211 10.5059 2.66016 10.3359 2.6582 10.1855C2.6582 10.1328 2.65625 10.0859 2.65625 10.0469V9.95312C2.65625 9.91211 2.65625 9.86719 2.6582 9.81445C2.66016 9.66211 2.66406 9.49414 2.66797 9.3125C2.68164 8.79297 2.70898 8.27344 2.75 7.79102C2.80273 7.16211 2.87695 6.64648 2.96875 6.30078C3.08984 5.84961 3.44531 5.49219 3.89453 5.37305C4.30469 5.26367 5.33789 5.17578 6.74219 5.12305C7.45313 5.0957 8.21875 5.07812 8.98242 5.06836C9.25 5.06445 9.49805 5.0625 9.7207 5.0625H10.2793L11.0176 5.06836C11.7812 5.07812 12.5449 5.0957 13.2578 5.12305C14.6621 5.17773 15.6973 5.26367 16.1055 5.37305C16.5547 5.49414 16.9102 5.84961 17.0312 6.30078C17.123 6.64648 17.1973 7.16211 17.25 7.79102C17.291 8.27344 17.3164 8.79297 17.332 9.3125C17.3379 9.49414 17.3398 9.66406 17.3418 9.81445C17.3418 9.86719 17.3438 9.91406 17.3438 9.95312V10.0469ZM8.26172 12.6172L12.793 9.98047L8.26172 7.38281V12.6172Z" fill=""/>
</symbol>



<symbol id="icon-spotify" fill="" viewBox="0 0 20 20">
<g clip-path="url(#clip0_202_206)">
<path d="M18.6667 10C18.6667 11.1381 18.4425 12.2651 18.007 13.3166C17.5714 14.3681 16.933 15.3235 16.1283 16.1283C15.3235 16.933 14.3681 17.5714 13.3166 18.007C12.2651 18.4425 11.1381 18.6667 10 18.6667V20C12.6522 20 15.1957 18.9464 17.0711 17.0711C18.9464 15.1957 20 12.6522 20 10H18.6667ZM10 18.6667C7.70146 18.6667 5.49706 17.7536 3.87174 16.1283C2.24643 14.5029 1.33333 12.2985 1.33333 10H0C0 12.6522 1.05357 15.1957 2.92893 17.0711C4.8043 18.9464 7.34784 20 10 20V18.6667ZM1.33333 10C1.33333 7.70146 2.24643 5.49706 3.87174 3.87174C5.49706 2.24643 7.70146 1.33333 10 1.33333V0C7.34784 0 4.8043 1.05357 2.92893 2.92893C1.05357 4.8043 0 7.34784 0 10H1.33333ZM10 1.33333C11.1381 1.33333 12.2651 1.5575 13.3166 1.99304C14.3681 2.42858 15.3235 3.06697 16.1283 3.87174C16.933 4.67652 17.5714 5.63192 18.007 6.68341C18.4425 7.7349 18.6667 8.86188 18.6667 10H20C20 7.34784 18.9464 4.8043 17.0711 2.92893C15.1957 1.05357 12.6522 0 10 0V1.33333ZM4.88267 13.488C6.19733 13.168 7.816 13.028 9.40533 13.184C11 13.34 12.5173 13.7893 13.6747 14.604L14.4413 13.512C13.0373 12.5253 11.2747 12.028 9.536 11.8573C7.87233 11.6965 6.19354 11.81 4.56667 12.1933L4.88267 13.488V13.488ZM4.43467 10.656C9.02933 9.84267 12.232 10.26 14.8867 12.1653L15.664 11.0813C12.6 8.88133 8.976 8.49867 4.20267 9.344L4.43467 10.656V10.656ZM4.13467 7.788C5.93867 7.15067 8.13867 6.88667 10.3 7.06267C12.464 7.24 14.54 7.856 16.1187 8.92933L16.8667 7.82533C15.048 6.58933 12.7347 5.924 10.4093 5.73467C8.08133 5.544 5.69067 5.824 3.69067 6.53067L4.13467 7.788V7.788Z" fill=""/>
</g>
<defs>
<clipPath id="clip0_202_206">
<rect width="20" height="20" fill="white"/>
</clipPath>
</defs>
</symbol>

<symbol id="icon-wiki" fill="" viewBox="0 0 20 20">
<path d="M19.914 1.47321H15.8192L15.5175 1.51785V1.96428C15.5175 2.0238 15.5749 2.05356 15.6899 2.05356C15.7186 2.08332 15.7761 2.09821 15.8623 2.09821L16.2502 2.14285C16.5663 2.14285 16.8106 2.23213 16.983 2.41071C17.1267 2.61904 17.141 2.90178 17.0261 3.25892L13.4054 13.0803L13.2761 13.0357L10.9485 7.63392L10.9916 7.54463L12.8881 3.52678C13.0893 3.11011 13.2761 2.78273 13.4485 2.54463C13.5634 2.27678 13.8364 2.12797 14.2675 2.09821C14.3537 2.09821 14.3968 2.05356 14.3968 1.96428V1.51785C12.8738 1.48809 11.7818 1.48809 11.1209 1.51785V2.05356C11.1496 2.08332 11.1784 2.09821 11.2071 2.09821L11.3795 2.14285C11.7244 2.14285 11.9399 2.21725 12.0261 2.36606C12.1123 2.51487 12.0836 2.81249 11.9399 3.25892L10.4744 6.56249L9.18125 3.48213V3.43749C8.86516 2.75297 8.77895 2.35118 8.92263 2.23213C9.00884 2.20237 9.12378 2.17261 9.26746 2.14285L9.43987 2.09821C9.52608 2.09821 9.56918 2.05356 9.56918 1.96428V1.51785H6.0347V1.96428C6.0347 2.0238 6.12091 2.08332 6.29332 2.14285C6.58068 2.17261 6.77464 2.25446 6.87522 2.38838C6.97579 2.52231 7.18413 2.94642 7.50022 3.66071L7.84505 4.46428L9.22436 7.49999C9.31056 7.76785 9.43987 8.11011 9.61229 8.52678L7.62953 13.0357L7.50022 12.9911C5.45999 8.05059 4.13815 4.7619 3.5347 3.12499C3.44849 2.85713 3.40539 2.66368 3.40539 2.54463C3.40539 2.27678 3.60654 2.14285 4.00884 2.14285H4.61229C4.81344 2.14285 4.91401 2.08332 4.91401 1.96428V1.56249L4.7416 1.51785H0.215736L0.0864258 1.56249V1.96428C0.0864258 2.0238 0.172633 2.08332 0.345046 2.14285C0.776081 2.14285 1.09217 2.21725 1.29332 2.36606C1.437 2.5744 1.59505 2.93154 1.76746 3.43749C2.14102 4.41963 2.91689 6.34672 4.09505 9.21874C5.27321 12.0908 6.06344 14.0625 6.46574 15.1339C6.8393 16.0268 7.25597 16.0119 7.71574 15.0893C8.34792 13.7202 9.13815 11.9196 10.0864 9.68749C10.2588 10.1339 10.5031 10.7589 10.8192 11.5625C11.1353 12.3661 11.4154 13.0729 11.6597 13.683C11.904 14.2931 12.0979 14.7619 12.2416 15.0893C12.6439 16.0417 13.0606 16.0417 13.4916 15.0893L17.9744 3.52678C18.1468 3.08035 18.3479 2.73809 18.5778 2.49999C18.8364 2.2619 19.2387 2.12797 19.7847 2.09821C19.8709 2.09821 19.914 2.05356 19.914 1.96428V1.47321Z" fill=""/>
</symbol>

<symbol id="icon-itunes" fill="" viewBox="0 0 20 20">
<path d="M10.0002 0.0819702C7.27033 0.0819702 4.93556 1.0041 2.99591 2.84836C1.05625 4.69263 0.0864258 6.91257 0.0864258 9.5082C0.0864258 12.1038 1.05625 14.3238 2.99591 16.168C4.93556 18.0123 7.27033 18.9344 10.0002 18.9344C12.7301 18.9344 15.0649 18.0123 17.0045 16.168C18.9442 14.3238 19.914 12.1038 19.914 9.5082C19.914 6.91257 18.9442 4.69263 17.0045 2.84836C15.0649 1.0041 12.7301 0.0819702 10.0002 0.0819702ZM10.0002 17.0492C7.81631 17.0492 5.94849 16.3115 4.39677 14.8361C2.84505 13.3607 2.06918 11.5847 2.06918 9.5082C2.06918 7.4317 2.84505 5.65574 4.39677 4.18033C5.94849 2.70492 7.81631 1.96722 10.0002 1.96722C12.1841 1.96722 14.0519 2.70492 15.6037 4.18033C17.1554 5.65574 17.9313 7.4317 17.9313 9.5082C17.9313 11.5847 17.1554 13.3607 15.6037 14.8361C14.0519 16.3115 12.1841 17.0492 10.0002 17.0492ZM13.6209 12.0492C13.6496 12.4317 13.5275 12.7869 13.2545 13.1148C12.9815 13.4426 12.6295 13.6339 12.1985 13.6885C11.7962 13.7158 11.437 13.6066 11.1209 13.3607C10.8048 13.1148 10.618 12.8005 10.5606 12.418C10.5318 12.0082 10.6611 11.6462 10.9485 11.332C11.2359 11.0178 11.5807 10.8333 11.983 10.7787C12.2129 10.7514 12.4715 10.7787 12.7588 10.8607V6.92623L8.75022 7.62295V12.582C8.77895 12.9918 8.66401 13.3538 8.40539 13.668C8.14677 13.9822 7.80194 14.1667 7.37091 14.2213C6.93987 14.2486 6.56631 14.1393 6.25022 13.8934C5.93413 13.6475 5.74734 13.3333 5.68987 12.9508C5.66114 12.541 5.78326 12.1721 6.05625 11.8443C6.32924 11.5164 6.68125 11.3388 7.11229 11.3115C7.34217 11.2842 7.60079 11.3115 7.88815 11.3934V5.73771L13.6209 4.79508V12.0492Z" fill=""/>
</symbol>

<symbol id="icon-musicbrainz" fill="none" viewBox="0 0 20 20">
<path d="M13.3192 5.5904C13.6444 5.5904 13.908 5.32681 13.908 5.00165C13.908 4.6765 13.6444 4.4129 13.3192 4.4129C12.9941 4.4129 12.7305 4.6765 12.7305 5.00165C12.7305 5.32681 12.9941 5.5904 13.3192 5.5904Z" stroke="#FE5F55" stroke-linecap="round" stroke-linejoin="round"/>
<path d="M15.8134 7.32209C16.1385 7.32209 16.4021 7.0585 16.4021 6.73334C16.4021 6.40818 16.1385 6.14459 15.8134 6.14459C15.4882 6.14459 15.2246 6.40818 15.2246 6.73334C15.2246 7.0585 15.4882 7.32209 15.8134 7.32209Z" stroke="#FE5F55" stroke-linecap="round" stroke-linejoin="round"/>
<path d="M15.8822 10.3146C16.2074 10.3146 16.471 10.051 16.471 9.72583C16.471 9.40068 16.2074 9.13708 15.8822 9.13708C15.5571 9.13708 15.2935 9.40068 15.2935 9.72583C15.2935 10.051 15.5571 10.3146 15.8822 10.3146Z" stroke="#FE5F55" stroke-linecap="round" stroke-linejoin="round"/>
<path d="M15.8822 13.6408C16.2074 13.6408 16.471 13.3772 16.471 13.0521C16.471 12.7269 16.2074 12.4633 15.8822 12.4633C15.5571 12.4633 15.2935 12.7269 15.2935 13.0521C15.2935 13.3772 15.5571 13.6408 15.8822 13.6408Z" stroke="#FE5F55" stroke-linecap="round" stroke-linejoin="round"/>
<path d="M13.8012 15.4841C14.1263 15.4841 14.3899 15.2205 14.3899 14.8954C14.3899 14.5702 14.1263 14.3066 13.8012 14.3066C13.476 14.3066 13.2124 14.5702 13.2124 14.8954C13.2124 15.2205 13.476 15.4841 13.8012 15.4841Z" stroke="#FE5F55" stroke-linecap="round" stroke-linejoin="round"/>
<path d="M12.5223 13.0033C12.8475 13.0033 13.1111 12.7397 13.1111 12.4146C13.1111 12.0894 12.8475 11.8258 12.5223 11.8258C12.1972 11.8258 11.9336 12.0894 11.9336 12.4146C11.9336 12.7397 12.1972 13.0033 12.5223 13.0033Z" stroke="#FE5F55" stroke-linecap="round" stroke-linejoin="round"/>
<path d="M12.9384 8.50001C13.2635 8.50001 13.5271 8.23642 13.5271 7.91126C13.5271 7.5861 13.2635 7.32251 12.9384 7.32251C12.6132 7.32251 12.3496 7.5861 12.3496 7.91126C12.3496 8.23642 12.6132 8.50001 12.9384 8.50001Z" stroke="#FE5F55" stroke-linecap="round" stroke-linejoin="round"/>
<path d="M12.5919 7.43458C12.2476 6.82368 11.6985 6.35409 11.0415 6.10875M11.519 6.315C12.0811 6.181 12.5988 5.90349 13.0215 5.50958M15.5707 7.27C15.4491 7.91239 15.4576 8.57262 15.5957 9.21167M15.5219 12.5887C15.5219 12.5887 14.3411 11.15 14.0811 10.9421C13.6274 10.6166 13.0806 10.4465 12.5223 10.4571C11.6965 10.4679 11.4086 10.0933 11.0415 9.80667" stroke="#FE5F55" stroke-linecap="round" stroke-linejoin="round"/>
<path d="M13.319 10.5692C13.319 10.5692 14.4782 9.705 15.2928 9.72583M13.2715 15.1483C11.9319 15.91 11.9911 14.9158 11.0415 15.0183M12.349 12.975C12.349 12.975 11.7498 14.5046 11.0415 15.0179" stroke="#FE5F55" stroke-linecap="round" stroke-linejoin="round"/>
<path d="M4.99185 14.3257C5.63688 14.0461 6.00561 13.4637 5.81544 13.025C5.62527 12.5863 4.94821 12.4572 4.30318 12.7368C3.65815 13.0164 3.28942 13.5987 3.47959 14.0375C3.66976 14.4762 4.34682 14.6052 4.99185 14.3257Z" stroke="#FE5F55" stroke-linecap="round" stroke-linejoin="round"/>
<path d="M5.8623 13.2296V5.36498L8.95814 3.44332M5.8623 10.1712L8.95814 8.24957M5.8623 8.02832L8.95814 6.10665M11.0415 1.45123L17.9244 5.42498V14.575L11.0415 18.5487V1.45123V1.45123Z" stroke="#FE5F55" stroke-linecap="round" stroke-linejoin="round"/>
<path d="M8.95811 18.5491L2.0752 14.575V5.42497L8.95811 1.45081V18.5491Z" stroke="#FE5F55" stroke-linecap="round" stroke-linejoin="round"/>
</symbol>

<symbol id="icon-homepage" fill="" viewBox="0 0 20 20">
<path d="M18.4864 9.86327L10.9395 2.3203L10.4337 1.81444C10.3184 1.69994 10.1625 1.63568 10.0001 1.63568C9.83762 1.63568 9.68175 1.69994 9.56649 1.81444L1.51375 9.86327C1.39565 9.98091 1.30231 10.121 1.23925 10.2753C1.17618 10.4296 1.14467 10.595 1.14657 10.7617C1.15438 11.4492 1.72664 11.998 2.41414 11.998H3.24422V18.3594H16.7559V11.998H17.6036C17.9376 11.998 18.252 11.8672 18.4884 11.6308C18.6047 11.5149 18.6969 11.3769 18.7596 11.2251C18.8223 11.0732 18.8543 10.9104 18.8536 10.7461C18.8536 10.4141 18.7227 10.0996 18.4864 9.86327V9.86327ZM11.0938 16.9531H8.90633V12.9687H11.0938V16.9531ZM15.3497 10.5918V16.9531H12.3438V12.5C12.3438 12.0683 11.9942 11.7187 11.5626 11.7187H8.43758C8.00594 11.7187 7.65633 12.0683 7.65633 12.5V16.9531H4.65047V10.5918H2.77547L10.002 3.37108L10.4532 3.82225L17.2266 10.5918H15.3497Z" fill=""/>
</symbol>

<symbol id="icon-lastfm" fill="" viewBox="0 0 20 20">
<path d="M10 0C4.47715 0 0 4.47715 0 10C0 15.5229 4.47715 20 10 20C15.5229 20 20 15.5229 20 10C20 4.47715 15.5229 0 10 0ZM6.5026 5.37083C7.17505 5.37257 7.5339 5.43363 8.1203 5.63698C9.1523 5.99487 10.0312 6.73498 10.6349 7.75417C11.5744 9.54628 12.3872 11.6642 13.0479 13.0589C13.9326 14.2781 15.7396 14.2217 16.4062 13.4828C17.9388 11.7842 15.6117 10.838 14.7937 10.5641C13.8777 10.2777 12.8025 9.78317 12.3948 8.94063C11.6475 6.81227 13.0214 5.41715 14.7937 5.46512C15.3436 5.3861 16.3888 5.7047 17.0739 6.81252L16.1818 7.29637C15.8035 6.89593 15.2644 6.56348 14.7463 6.55887C13.5927 6.3964 12.9611 7.8679 13.6583 8.68543C13.8936 8.92763 14.181 9.06078 15.2672 9.42867C16.819 9.95013 17.9505 10.4646 18.0359 12.0641C18.1413 14.2234 15.9966 15.5182 13.8234 15.0172C12.9483 14.7796 12.225 14.1578 11.7651 13.2485C10.9567 11.6723 10.3911 9.73457 9.55833 8.34375C8.8594 7.2331 7.74455 6.6233 6.41458 6.625C4.78453 6.60307 3.35742 7.89092 2.89532 9.18958C2.55097 10.5731 2.88885 11.9767 3.85262 12.925C6.11385 14.9295 8.60878 13.6167 9.60105 12.2047C9.64298 12.2047 10.1625 13.3219 10.1625 13.412C9.48735 14.2246 8.21988 14.928 7.28908 15.1016C6.79258 15.1882 5.99407 15.189 5.52345 15.1037C3.70247 14.7732 2.18448 13.3657 1.6724 11.5333C0.912333 8.4737 2.91163 6.0319 5.21353 5.49792C5.59868 5.39622 5.78813 5.37605 6.36353 5.37135C6.40989 5.37093 6.45624 5.37076 6.5026 5.37083V5.37083Z" fill=""/>
</symbol>

<symbol id="icon-twitter" fill="" viewBox="0 0 20 20">
<g clip-path="url(#clip0_209_56)">
<path d="M9.9999 -0.0212402C4.47428 -0.0212402 -0.0219727 4.47376 -0.0219727 10C-0.0219727 15.5263 4.47428 20.0213 9.9999 20.0213C15.5255 20.0213 20.0218 15.5263 20.0218 10C20.0218 4.47376 15.5255 -0.0212402 9.9999 -0.0212402ZM9.9999 19.3538C4.8424 19.3538 0.646777 15.1575 0.646777 10C0.646777 4.84251 4.8424 0.64626 9.9999 0.64626C15.1574 0.64626 19.353 4.84251 19.353 10C19.353 15.1575 15.1574 19.3538 9.9999 19.3538Z" fill=""/>
<path d="M15.4959 6.90376C15.5653 6.77543 15.6224 6.64089 15.6666 6.50188C15.687 6.43741 15.6874 6.36825 15.6677 6.30353C15.6481 6.23881 15.6092 6.18159 15.5564 6.1394C15.5035 6.09722 15.439 6.07207 15.3716 6.06727C15.3041 6.06247 15.2368 6.07824 15.1784 6.11251C14.8582 6.30276 14.5115 6.44451 14.1497 6.53314C13.7105 6.13674 13.1401 5.91699 12.5484 5.91626C12.227 5.91651 11.9089 5.98165 11.6133 6.1078C11.3177 6.23394 11.0505 6.41848 10.8279 6.65036C10.6053 6.88223 10.4319 7.15667 10.3179 7.45721C10.2039 7.75775 10.1518 8.07822 10.1647 8.39939C8.75907 8.22243 7.47552 7.51117 6.58032 6.41313C6.54602 6.37154 6.50218 6.33883 6.45254 6.3178C6.40289 6.29676 6.34891 6.28802 6.29516 6.29232C6.24142 6.29661 6.1895 6.31382 6.14383 6.34247C6.09816 6.37112 6.06007 6.41037 6.03282 6.45689C5.82783 6.80871 5.71641 7.2072 5.70919 7.61432C5.70197 8.02145 5.79919 8.42363 5.99157 8.78251C5.94438 8.79047 5.89906 8.80699 5.85782 8.83126C5.80728 8.86348 5.76568 8.90791 5.73684 8.96045C5.708 9.013 5.69286 9.07195 5.69282 9.13189C5.69282 9.84126 6.00844 10.4925 6.51719 10.935L6.49532 10.9569C6.45691 11.0003 6.43048 11.053 6.41865 11.1098C6.40681 11.1666 6.40997 11.2255 6.42782 11.2806C6.5339 11.6116 6.71104 11.9154 6.94682 12.1707C7.1826 12.426 7.47134 12.6267 7.79282 12.7588C7.13256 13.0809 6.39366 13.2065 5.66407 13.1206C5.58907 13.113 5.51365 13.1304 5.44964 13.1703C5.38562 13.2101 5.33662 13.27 5.31032 13.3406C5.28505 13.4118 5.28458 13.4894 5.30897 13.5609C5.33336 13.6324 5.38119 13.6935 5.44469 13.7344C6.43657 14.371 7.59047 14.7092 8.76907 14.7088C12.6316 14.7088 14.9403 11.5713 14.9403 8.53814L14.9397 8.43563C15.314 8.14339 15.6392 7.79313 15.9028 7.39813C15.9427 7.33842 15.9624 7.26744 15.9588 7.1957C15.9552 7.12395 15.9287 7.05527 15.883 6.9998C15.8374 6.94434 15.7751 6.90505 15.7054 6.88776C15.6357 6.87046 15.5622 6.87607 15.4959 6.90376V6.90376ZM14.4053 8.00063C14.36 8.03325 14.3235 8.0767 14.2993 8.12703C14.275 8.17737 14.2638 8.23297 14.2666 8.28876C14.2703 8.37126 14.2722 8.45501 14.2722 8.53751C14.2722 11.2425 12.2141 14.0406 8.76969 14.0406C8.15538 14.0409 7.5454 13.9378 6.96532 13.7356C7.66006 13.6025 8.31271 13.3046 8.86844 12.8669C8.92254 12.8242 8.96214 12.7659 8.98183 12.6999C9.00153 12.6339 9.00035 12.5634 8.97846 12.4981C8.95657 12.4328 8.91504 12.3758 8.85955 12.335C8.80406 12.2941 8.73731 12.2715 8.66844 12.27C8.39896 12.2649 8.13445 12.1965 7.89626 12.0703C7.65808 11.9442 7.45287 11.7638 7.29719 11.5438C7.45532 11.5331 7.61032 11.5069 7.76094 11.4663C7.83384 11.4467 7.89797 11.4031 7.94288 11.3425C7.98779 11.2818 8.01081 11.2077 8.0082 11.1323C8.00559 11.0569 7.9775 10.9846 7.92851 10.9272C7.87951 10.8698 7.81251 10.8307 7.73844 10.8163C7.43408 10.7543 7.15228 10.6109 6.92318 10.4011C6.69408 10.1914 6.52631 9.92335 6.43782 9.62564C6.60407 9.66751 6.77469 9.69188 6.94532 9.69751C7.09219 9.69688 7.22844 9.60689 7.27407 9.46564C7.31969 9.32439 7.26594 9.16876 7.14157 9.08626C6.84749 8.89033 6.62106 8.60839 6.4932 8.27896C6.36534 7.94953 6.34229 7.58866 6.42719 7.24564C7.51284 8.35958 8.97879 9.02292 10.5322 9.10313C10.6422 9.10376 10.7384 9.06438 10.8053 8.98376C10.8722 8.90313 10.8978 8.79626 10.8741 8.69376C10.7886 8.32563 10.8268 7.9396 10.9828 7.59539C11.1389 7.25119 11.404 6.968 11.7372 6.78966C12.0704 6.61132 12.4531 6.54777 12.826 6.60884C13.199 6.66992 13.5414 6.85221 13.8003 7.12751C13.8391 7.16891 13.8878 7.19976 13.9418 7.21714C13.9958 7.23453 14.0534 7.23788 14.1091 7.22688C14.2122 7.20626 14.3141 7.18251 14.4147 7.15501C14.3693 7.18897 14.3222 7.22047 14.2734 7.24938C14.2086 7.28909 14.1593 7.34968 14.1335 7.42119C14.1078 7.49269 14.1071 7.57084 14.1317 7.64275C14.1563 7.71466 14.2047 7.77605 14.2689 7.81679C14.333 7.85753 14.4091 7.8752 14.4847 7.86688L14.5984 7.85251C14.5358 7.90411 14.4714 7.95351 14.4053 8.00063V8.00063Z" fill=""/>
</g>
<defs>
<clipPath id="clip0_209_56">
<rect width="20" height="20" fill="white"/>
</clipPath>
</defs>
</symbol>

<symbol id="icon-bookmark" fill="" stroke="" viewBox="0 0 20 20">
<path d="M2.5 2.5C2.5 1.83696 2.76339 1.20107 3.23223 0.732233C3.70107 0.263392 4.33696 0 5 0L15 0C15.663 0 16.2989 0.263392 16.7678 0.732233C17.2366 1.20107 17.5 1.83696 17.5 2.5V19.375C17.4999 19.4881 17.4692 19.599 17.4111 19.6959C17.353 19.7929 17.2697 19.8723 17.17 19.9257C17.0703 19.979 16.9581 20.0044 16.8451 19.999C16.7322 19.9936 16.6229 19.9576 16.5287 19.895L10 16.3762L3.47125 19.895C3.37713 19.9576 3.26779 19.9936 3.15486 19.999C3.04194 20.0044 2.92967 19.979 2.83 19.9257C2.73033 19.8723 2.64701 19.7929 2.58889 19.6959C2.53078 19.599 2.50006 19.4881 2.5 19.375V2.5ZM5 1.25C4.66848 1.25 4.35054 1.3817 4.11612 1.61612C3.8817 1.85054 3.75 2.16848 3.75 2.5V18.2075L9.65375 15.105C9.75633 15.0367 9.87679 15.0003 10 15.0003C10.1232 15.0003 10.2437 15.0367 10.3463 15.105L16.25 18.2075V2.5C16.25 2.16848 16.1183 1.85054 15.8839 1.61612C15.6495 1.3817 15.3315 1.25 15 1.25H5Z" fill=""/>
</symbol>

<symbol id="icon-bookmark-filled" fill="" stroke="" viewBox="0 0 20 20">
<g clip-path="url(#clip0_313_12)">
<path fill-rule="evenodd" clip-rule="evenodd" d="M2.5 19.375V2.5C2.5 1.83696 2.76339 1.20107 3.23223 0.732233C3.70107 0.263392 4.33696 0 5 0L15 0C15.663 0 16.2989 0.263392 16.7678 0.732233C17.2366 1.20107 17.5 1.83696 17.5 2.5V19.375C17.5001 19.4835 17.4719 19.5902 17.4182 19.6845C17.3645 19.7789 17.2872 19.8576 17.1939 19.913C17.1005 19.9684 16.9944 19.9985 16.8859 20.0004C16.7774 20.0022 16.6702 19.9758 16.575 19.9238L10 16.3363L3.425 19.9238C3.32979 19.9758 3.22265 20.0022 3.11413 20.0004C3.00561 19.9985 2.89946 19.9684 2.80611 19.913C2.71277 19.8576 2.63546 19.7789 2.58178 19.6845C2.52811 19.5902 2.49992 19.4835 2.5 19.375ZM13.5675 7.3175C13.6849 7.20014 13.7508 7.04097 13.7508 6.875C13.7508 6.70903 13.6849 6.54986 13.5675 6.4325C13.4501 6.31514 13.291 6.24921 13.125 6.24921C12.959 6.24921 12.7999 6.31514 12.6825 6.4325L9.375 9.74125L7.9425 8.3075C7.88439 8.24939 7.8154 8.20329 7.73948 8.17185C7.66356 8.1404 7.58218 8.12421 7.5 8.12421C7.41782 8.12421 7.33645 8.1404 7.26052 8.17185C7.1846 8.20329 7.11561 8.24939 7.0575 8.3075C6.99939 8.36561 6.95329 8.4346 6.92185 8.51052C6.8904 8.58644 6.87421 8.66782 6.87421 8.75C6.87421 8.83218 6.8904 8.91356 6.92185 8.98948C6.95329 9.0654 6.99939 9.13439 7.0575 9.1925L8.9325 11.0675C8.99056 11.1257 9.05953 11.1719 9.13546 11.2034C9.21139 11.2349 9.29279 11.2511 9.375 11.2511C9.45721 11.2511 9.53861 11.2349 9.61454 11.2034C9.69047 11.1719 9.75944 11.1257 9.8175 11.0675L13.5675 7.3175Z" fill=""/>
</g>
<defs>
<clipPath id="clip0_313_12">
<rect width="20" height="20" fill=""/>
</clipPath>
</defs>
</symbol>
</defs>
</svg>






























