<svg aria-hidden="true" style="position: absolute; width: 0; height: 0; overflow: hidden;" version="1.1" xmlns="http://www.w3.org/2000/svg" xmlns:xlink="http://www.w3.org/1999/xlink">
<defs>
<symbol id="icon-map" fill="none" viewBox="0 0 20 20">
<path d="M6.97333 3.99167L4.69333 3.23084C4.44278 3.14739 4.17598 3.12467 3.91492 3.16456C3.65387 3.20445 3.40603 3.30581 3.19182 3.46027C2.97762 3.61474 2.80319 3.81789 2.68291 4.053C2.56263 4.2881 2.49994 4.54842 2.5 4.81251V14.6317C2.49992 14.9816 2.60998 15.3227 2.8146 15.6066C3.01921 15.8905 3.30799 16.1028 3.64 16.2133L6.97333 17.3242C7.31521 17.438 7.68479 17.438 8.02667 17.3242L11.9733 16.0092C12.3152 15.8953 12.6848 15.8953 13.0267 16.0092L15.3067 16.7692C15.5573 16.8526 15.8242 16.8754 16.0853 16.8354C16.3464 16.7955 16.5943 16.6941 16.8085 16.5395C17.0227 16.3849 17.1971 16.1817 17.3174 15.9465C17.4376 15.7112 17.5002 15.4508 17.5 15.1867V5.36834C17.5001 5.0185 17.3902 4.67749 17.1857 4.39361C16.9813 4.10974 16.6927 3.8974 16.3608 3.78668L13.0275 2.67584C12.6854 2.56179 12.3155 2.56179 11.9733 2.67584L8.02583 3.99084C7.68395 4.10471 7.31438 4.10471 6.9725 3.99084L6.97333 3.99167Z" stroke="#344055" stroke-width="2" stroke-linecap="round" stroke-linejoin="round"/>
<path d="M7.5 4.16666V17.5" stroke="#344055" stroke-width="2" stroke-linejoin="round"/>
<path d="M12.5 2.5V15.8333" stroke="#344055" stroke-width="2" stroke-linejoin="round"/>
</symbol>

<symbol id="icon-marker"  viewBox="0 0 20 20">
<path d="M9.99998 3.73334C9.37038 3.73334 8.75492 3.92004 8.23142 4.26983C7.70792 4.61962 7.29991 5.11678 7.05897 5.69846C6.81803 6.28014 6.75499 6.9202 6.87782 7.53771C7.00065 8.15522 7.30383 8.72243 7.74903 9.16763C8.19423 9.61283 8.76144 9.91601 9.37895 10.0388C9.99645 10.1617 10.6365 10.0986 11.2182 9.85769C11.7999 9.61675 12.297 9.20873 12.6468 8.68524C12.9966 8.16174 13.1833 7.54628 13.1833 6.91667C13.1833 6.0724 12.8479 5.26271 12.2509 4.66571C11.6539 4.06872 10.8443 3.73334 9.99998 3.73334V3.73334ZM9.99998 8.98889C9.59014 8.98889 9.18949 8.86736 8.84872 8.63966C8.50794 8.41196 8.24234 8.08833 8.0855 7.70968C7.92866 7.33103 7.88762 6.91437 7.96758 6.5124C8.04754 6.11043 8.2449 5.74119 8.5347 5.45139C8.82451 5.16158 9.19374 4.96422 9.59571 4.88427C9.99769 4.80431 10.4143 4.84535 10.793 5.00219C11.1716 5.15903 11.4953 5.42463 11.723 5.76541C11.9507 6.10618 12.0722 6.50682 12.0722 6.91667C12.0707 7.4653 11.8518 7.99095 11.4633 8.37836C11.0748 8.76578 10.5486 8.98334 9.99998 8.98334V8.98889Z" />
<path d="M10 1.11111C8.26957 1.11256 6.61 1.79872 5.38379 3.01972C4.15758 4.24073 3.46437 5.89736 3.45557 7.62778C3.45557 10.2222 4.91112 12.3944 5.97779 13.9778L6.17223 14.2667C7.2335 15.8048 8.372 17.2882 9.58334 18.7111L10.0056 19.2056L10.4278 18.7111C11.639 17.2881 12.7775 15.8047 13.8389 14.2667L14.0333 13.9722C15.0945 12.3889 16.55 10.2222 16.55 7.62778C16.5412 5.8964 15.8472 4.23893 14.6198 3.01777C13.3924 1.7966 11.7314 1.11109 10 1.11111V1.11111ZM13.1056 13.3333L12.9056 13.6278C11.95 15.0611 10.6833 16.6667 10 17.4611C9.34446 16.6667 8.05001 15.0611 7.09446 13.6278L6.90001 13.3333C5.91668 11.8667 4.56668 9.86111 4.56668 7.60556C4.56668 6.89204 4.70722 6.18552 4.98027 5.52631C5.25332 4.86711 5.65353 4.26814 6.15806 3.76361C6.6626 3.25908 7.26156 2.85886 7.92076 2.58581C8.57997 2.31276 9.2865 2.17223 10 2.17223C10.7135 2.17223 11.4201 2.31276 12.0793 2.58581C12.7385 2.85886 13.3374 3.25908 13.842 3.76361C14.3465 4.26814 14.7467 4.86711 15.0198 5.52631C15.2928 6.18552 15.4333 6.89204 15.4333 7.60556C15.4333 9.88334 14.0889 11.8889 13.1056 13.3333V13.3333Z" />
</symbol>

<symbol id="icon-segments" viewBox="0 0 20 20">
<path d="M1.25 15V13.75H12.5V15H1.25ZM1.25 8.75H18.75V10H1.25V8.75ZM15 3.75V5H1.25V3.75H15Z" fill=""/>
</symbol>

<symbol id="icon-search" fill="" viewBox="0 0 20 20">
<path d="M19.9399 19.0624L13.4474 12.5699C14.4549 11.2675 14.9999 9.67496 14.9999 7.99997C14.9999 5.99498 14.2174 4.11498 12.8024 2.69749C11.3874 1.28 9.50246 0.5 7.49997 0.5C5.49748 0.5 3.61248 1.2825 2.19749 2.69749C0.779997 4.11248 0 5.99498 0 7.99997C0 10.0025 0.782497 11.8874 2.19749 13.3024C3.61248 14.7199 5.49498 15.4999 7.49997 15.4999C9.17496 15.4999 10.765 14.9549 12.0674 13.9499L18.5599 20.4399C18.579 20.459 18.6016 20.4741 18.6264 20.4844C18.6513 20.4947 18.678 20.5 18.7049 20.5C18.7319 20.5 18.7585 20.4947 18.7834 20.4844C18.8083 20.4741 18.8309 20.459 18.8499 20.4399L19.9399 19.3524C19.959 19.3334 19.9741 19.3108 19.9844 19.2859C19.9947 19.261 20 19.2343 20 19.2074C20 19.1805 19.9947 19.1538 19.9844 19.1289C19.9741 19.1041 19.959 19.0815 19.9399 19.0624ZM11.46 11.96C10.4 13.0174 8.99496 13.5999 7.49997 13.5999C6.00497 13.5999 4.59998 13.0174 3.53998 11.96C2.48249 10.9 1.89999 9.49496 1.89999 7.99997C1.89999 6.50497 2.48249 5.09748 3.53998 4.03998C4.59998 2.98249 6.00497 2.39999 7.49997 2.39999C8.99496 2.39999 10.4025 2.97999 11.46 4.03998C12.5174 5.09998 13.0999 6.50497 13.0999 7.99997C13.0999 9.49496 12.5174 10.9025 11.46 11.96Z" fill=""/>
</symbol>

<symbol id="icon-calendar" fill="none" viewBox="0 0 20 20">
<path d="M15 3.33331H4.99996C3.15901 3.33331 1.66663 4.8257 1.66663 6.66665V15C1.66663 16.8409 3.15901 18.3333 4.99996 18.3333H15C16.8409 18.3333 18.3333 16.8409 18.3333 15V6.66665C18.3333 4.8257 16.8409 3.33331 15 3.33331Z" stroke="#344055" stroke-width="2" stroke-linecap="round" stroke-linejoin="round"/>
<path d="M6.66663 1.66666V4.99999" stroke="#344055" stroke-width="2" stroke-linecap="round" stroke-linejoin="round"/>
<path d="M13.3333 1.66666V4.99999" stroke="#344055" stroke-width="2" stroke-linecap="round" stroke-linejoin="round"/>
<path d="M1.66663 8.33331H18.3333" stroke="#344055" stroke-width="2" stroke-linecap="round" stroke-linejoin="round"/>
</symbol>

<symbol id="icon-calendar-light" fill="none" viewBox="0 0 20 20">
<path d="M15 3.33331H4.99996C3.15901 3.33331 1.66663 4.8257 1.66663 6.66665V15C1.66663 16.8409 3.15901 18.3333 4.99996 18.3333H15C16.8409 18.3333 18.3333 16.8409 18.3333 15V6.66665C18.3333 4.8257 16.8409 3.33331 15 3.33331Z" stroke="#B8C0D8" stroke-width="2" stroke-linecap="round" stroke-linejoin="round"/>
<path d="M6.66663 1.66666V4.99999" stroke="#B8C0D8" stroke-width="2" stroke-linecap="round" stroke-linejoin="round"/>
<path d="M13.3333 1.66666V4.99999" stroke="#B8C0D8" stroke-width="2" stroke-linecap="round" stroke-linejoin="round"/>
<path d="M1.66663 8.33331H18.3333" stroke="#B8C0D8" stroke-width="2" stroke-linecap="round" stroke-linejoin="round"/>
</symbol>

<symbol id="icon-up" fill="none" viewBox="0 0 20 20">
<path d="M16.6666 12.5L9.99996 5.83333L3.3333 12.5" stroke="" stroke-width="2" stroke-linecap="round" stroke-linejoin="round"/>
</symbol>
<symbol id="icon-loading" viewBox="0 0 20 20">
<path d="M10 20C8.65039 20 7.33984 19.7363 6.10742 19.2148C4.91602 18.7109 3.84766 17.9883 2.92969 17.0703C2.01172 16.1523 1.28906 15.084 0.785156 13.8926C0.263672 12.6602 0 11.3496 0 10C0 9.61133 0.314453 9.29688 0.703125 9.29688C1.0918 9.29688 1.40625 9.61133 1.40625 10C1.40625 11.1602 1.63281 12.2852 2.08203 13.3457C2.51562 14.3691 3.13477 15.2891 3.92383 16.0781C4.71289 16.8672 5.63281 17.4883 6.65625 17.9199C7.71484 18.3672 8.83984 18.5938 10 18.5938C11.1602 18.5938 12.2852 18.3672 13.3457 17.918C14.3691 17.4844 15.2891 16.8652 16.0781 16.0762C16.8672 15.2871 17.4883 14.3672 17.9199 13.3438C18.3672 12.2852 18.5938 11.1602 18.5938 10C18.5938 8.83984 18.3672 7.71484 17.918 6.6543C17.4858 5.63332 16.8604 4.70549 16.0762 3.92188C15.2934 3.13656 14.3654 2.51101 13.3438 2.08008C12.2852 1.63281 11.1602 1.40625 10 1.40625C9.61133 1.40625 9.29688 1.0918 9.29688 0.703125C9.29688 0.314453 9.61133 0 10 0C11.3496 0 12.6602 0.263672 13.8926 0.785156C15.084 1.28906 16.1523 2.01172 17.0703 2.92969C17.9883 3.84766 18.709 4.91797 19.2129 6.10742C19.7344 7.33984 19.998 8.65039 19.998 10C19.998 11.3496 19.7344 12.6602 19.2129 13.8926C18.7109 15.084 17.9883 16.1523 17.0703 17.0703C16.1523 17.9883 15.082 18.709 13.8926 19.2129C12.6602 19.7363 11.3496 20 10 20V20Z" fill=""/>
</symbol>
<symbol id="icon-rarrow" fill="none" viewBox="0 0 20 20">
<path d="M10.8334 4.16669L16.6667 10L10.8334 15.8334M3.33337 10H16.6667H3.33337Z" stroke="" stroke-width="2" stroke-linecap="round" stroke-linejoin="round"/>
</symbol>
</defs>
</svg>























